<?xml version="1.0" encoding="utf-8"?>
<!-- Generator: Adobe Illustrator 21.1.0, SVG Export Plug-In . SVG Version: 6.00 Build 0)  -->
<svg version="1.1" id="Layer_1" xmlns="http://www.w3.org/2000/svg" xmlns:xlink="http://www.w3.org/1999/xlink" x="0px" y="0px"
	 viewBox="0 0 512 512" style="enable-background:new 0 0 512 512;" xml:space="preserve">
<g>
	<g>
		<path d="M460.3,375.2L460.3,375.2c-4.3-10.2-12.5-18.3-22.6-22.6V142.8C437.7,78,385,25.4,320.3,25.4S202.9,78,202.9,142.8v134.6
			c-39.4,1.2-85.9,12-125.6,29.3C15.1,333.7,1,361.9,0,380.7l0,23.4c0,14.6,1.9,35.7,18.2,50.3C29.9,464.9,47,470.1,72,470.7l97.4,0
			c11.5,9.9,26.4,15.9,42.8,15.9c16.5,0,31.5-6.1,43.1-16.1c37.9-2.7,61.2-27.3,61.2-65.7l0-41.2l0-0.3c-0.5-27.2-11-49.6-30.2-64.5
			c-13.1-10.2-29.8-16.7-50-19.7V142.8c0-46.3,37.7-84,84-84s84,37.7,84,84v209.8c-10.2,4.3-18.3,12.5-22.6,22.6H330v110.2h182
			V375.2H460.3z M90.7,337.2c14.8-6.4,30.8-11.9,47-16.2c-8.5,17.5-24.1,38.2-45.7,38.2H51.5C61.5,351.7,74.9,344.1,90.7,337.2z
			 M212.2,453.2c-17.8,0-32.3-14.5-32.3-32.3c0-17.8,14.5-32.3,32.3-32.3s32.3,14.5,32.3,32.3C244.5,438.7,230,453.2,212.2,453.2z
			 M265.8,325.1c11.3,8.8,16.9,21.4,17.3,38.7l0,41c0,9.4-2.1,16.1-5.4,20.9c0.1-1.6,0.2-3.1,0.2-4.7c0-36.2-29.5-65.7-65.7-65.7
			s-65.7,29.5-65.7,65.7c0,5.7,0.7,11.2,2.1,16.4h-76c-16-0.4-26.9-3-32.2-7.8c-3-2.7-7.1-8.3-7.1-25.5v-11.4h58.6
			c25,0,48.3-14,65.8-39.5c8.4-12.3,15.3-27.3,18.6-40c11.3-1.6,22.2-2.5,32.4-2.6l1.6,0C234.4,310.6,253.6,315.6,265.8,325.1z
			 M421,382.5c5.2,0,9.4,4.2,9.4,9.4c0,5.2-4.2,9.4-9.4,9.4s-9.4-4.2-9.4-9.4C411.6,386.7,415.8,382.5,421,382.5z M478.6,452H363.4
			v-43.4h18.3c6.5,15.3,21.7,26,39.3,26s32.8-10.8,39.3-26h18.3V452z"/>
	</g>
</g>
</svg>
