<?xml version="1.0" encoding="utf-8"?>
<!-- Generator: Adobe Illustrator 21.1.0, SVG Export Plug-In . SVG Version: 6.00 Build 0)  -->
<svg version="1.1" id="Capa_1" xmlns="http://www.w3.org/2000/svg" xmlns:xlink="http://www.w3.org/1999/xlink" x="0px" y="0px"
	 viewBox="0 0 55 55" style="enable-background:new 0 0 55 55;" xml:space="preserve">
<g>
	<g>
		<path d="M45.1,16.6c-0.4,0.2-0.8,0.4-1.2,0.7c-0.4,0.3-0.8,0.6-1.1,0.9c1.6,2,2.8,4.3,3.5,6.9c1.4,4.9,1,10.1-1.1,14.7
			c-2.9,6.4-8.8,10.5-15.2,10.5c-1.2,0-2.4-0.1-3.5-0.4c0,0.5,0,1,0,1.5c0,0.5,0,1,0,1.5c1.2,0.2,2.4,0.4,3.5,0.4
			c7.1,0,14-4.4,17.5-12.1C51.3,32.9,50,23.3,45.1,16.6z"/>
		<path d="M30,11.6c0.9,0,1.7,0.1,2.5,0.2c0.5-0.3,1-0.7,1.5-1.2c0.4-0.4,0.7-0.8,1.1-1.2c-1.7-0.5-3.4-0.8-5.1-0.8v1.5L30,11.6
			L30,11.6z"/>
		<path d="M22.2,13.7c2.4-1.4,5-2.1,7.8-2.1v-1.5l0-1.5h0c-3.3,0-6.5,0.9-9.4,2.7c0.3,0.3,0.6,0.7,0.9,1.1
			C21.7,12.9,22,13.3,22.2,13.7z"/>
		<path d="M30,44.1c-1.2,0-2.5-0.2-3.7-0.7c0,0.5,0,1,0,1.6c0,0,0,0.1,0,0.1c0,0.5,0,1,0,1.6c1.2,0.4,2.4,0.5,3.6,0.5
			c5.2,0,10.2-3.2,12.8-8.8c2.8-6,1.8-13.1-1.8-18c-0.3,0.5-0.5,0.9-0.7,1.4c0,0,0,0.1,0,0.1c-0.2,0.6-0.4,1.1-0.6,1.6
			c2.3,3.9,2.8,9,0.7,13.5C38.3,41.5,34.2,44.1,30,44.1z"/>
		<path d="M33.8,12.1c-3.2,2.5-6.9,2.6-6.9,2.6c3.6,0,6,1.2,7.7,2.9c0.7,0.7,1.2,1.4,1.6,2.2c0.4,0.6,0.6,1.2,0.9,1.9
			c1.1,2.8,1.1,5.5,1.1,5.8c0-0.3,0.1-2.4,0.9-4.8c0.2-0.5,0.4-1,0.6-1.5c0,0,0-0.1,0-0.1c0.2-0.4,0.4-0.9,0.7-1.3
			c0.5-0.8,1.1-1.6,1.8-2.3c0.3-0.3,0.7-0.6,1.1-0.9c0.4-0.3,0.8-0.5,1.2-0.7c1.4-0.7,3-1.1,5-1.1c0,0,0,0,0,0
			c-11.1,0-11.3-12.8-11.3-12.8c0,3.4-0.9,6-2.1,7.8c-0.3,0.4-0.6,0.9-1,1.2C34.7,11.4,34.2,11.8,33.8,12.1z"/>
		<path d="M2.9,55.6h21.4c0.4,0,0.7-0.2,0.9-0.4c0.2-0.3,0.4-0.7,0.4-1c0-0.5,0-1,0-1.5c0-0.5,0-1,0-1.5c0-0.5,0-1,0-1.6
			c0-1.1,0-2.1-0.1-3.2c0-0.5,0-1.1,0-1.6c0,0,0-0.1,0-0.1c0-0.6,0-1.1,0-1.6c-0.5-16.4-1.9-24.7-4-28.8c-0.2-0.5-0.5-0.9-0.7-1.3
			c-0.3-0.4-0.6-0.8-0.9-1.1c-0.6-0.7-1.3-1.1-2-1.4v0.4H9.4v-0.5C5,11.8,1.7,19.1,1.6,54.1c0,0.4,0.1,0.8,0.4,1
			C2.2,55.4,2.6,55.6,2.9,55.6z M9,18.8c1,0,1.9,1.8,2.4,4.6c0.2,1.3,0.4,2.8,0.4,4.5c0,0,0,0,0,0.1c0,1.2-0.1,2.3-0.2,3.3
			c-0.2,1.6-0.5,3-1,4c-0.5,1.1-1,1.7-1.6,1.7c-1.5,0-2.8-4-2.8-9S7.5,18.8,9,18.8z"/>
		<path d="M16.9,9.7V9.2V2.3c-0.1-0.1-0.1-0.1-0.2-0.2c-0.2-0.1-0.4-0.3-0.7-0.5c-0.3-0.2-0.7-0.4-1.1-0.5c-0.7-0.2-1.5-0.3-2.4,0
			c-0.4,0.1-0.8,0.3-1.2,0.5c-0.2,0.1-0.5,0.3-0.7,0.5c-0.1,0.1-0.2,0.2-0.3,0.3v6.8v0.5v0.2h6.7V9.7z"/>
	</g>
</g>
</svg>
